G04 DipTrace 3.2.0.1*
G04 Top.gbr*
%MOMM*%
G04 #@! TF.FileFunction,Copper,L1,Top*
G04 #@! TF.Part,Single*
G04 #@! TA.AperFunction,Conductor*
%ADD14C,0.33*%
G04 #@! TA.AperFunction,ComponentPad*
%ADD15R,1.25X1.25*%
%ADD16C,1.25*%
%ADD17C,1.5*%
%ADD18R,1.5X1.5*%
%ADD19R,2.0X2.0*%
%ADD20C,2.0*%
%ADD21R,1.5X1.3*%
G04 #@! TA.AperFunction,ViaPad*
%ADD22C,1.016*%
%FSLAX35Y35*%
G04*
G71*
G90*
G75*
G01*
G04 Top*
%LPD*%
X920750Y2000250D2*
D14*
Y2159000D1*
X635000Y2444750D1*
X499250D1*
X412750Y2889250D2*
X499250Y2802750D1*
Y2444750D1*
X1587500Y2921000D2*
X1428750Y2762250D1*
Y2381250D1*
X1174750Y2127250D1*
Y2000250D1*
X666750D2*
X349250Y2317750D1*
Y2444750D1*
Y2635250D1*
X1047750Y2540000D2*
X889000D1*
X1047750Y2350000D2*
X1080000D1*
X1333500Y2603500D1*
Y2921000D1*
X762000Y2730500D2*
X1016000D1*
X1079500Y2794000D1*
Y2921000D1*
X412750Y3143250D2*
X539250D1*
X762000Y2920500D1*
D22*
X349250Y2635250D3*
X889000Y2540000D3*
D15*
X349250Y2444750D3*
D16*
X499250D3*
D17*
X412750Y3143250D3*
D18*
Y2889250D3*
X1587500Y2254250D3*
D17*
Y2454250D3*
D19*
X666750Y2000250D3*
D20*
X920750D3*
X1174750D3*
D18*
X1079500Y2921000D3*
D17*
X1333500D3*
X1587500D3*
D21*
X1047750Y2540000D3*
Y2350000D3*
X762000Y2730500D3*
Y2920500D3*
M02*
