G04 DipTrace 3.2.0.1*
G04 TopDimension.gbr*
%MOMM*%
G04 #@! TF.FileFunction,Drawing,Top*
G04 #@! TF.Part,Single*
%ADD13C,0.035*%
%ADD47C,0.15686*%
%FSLAX35Y35*%
G04*
G71*
G90*
G75*
G01*
G04 TopDimension*
%LPD*%
X158750Y3397250D2*
D13*
Y3796500D1*
X1746250Y3397250D2*
Y3796500D1*
X952500Y3746500D2*
X258750D1*
G36*
X158750D2*
X258750Y3766500D1*
Y3726500D1*
X158750Y3746500D1*
G37*
X952500D2*
D13*
X1646250D1*
G36*
X1746250D2*
X1646250Y3726500D1*
Y3766500D1*
X1746250Y3746500D1*
G37*
X158750Y3397250D2*
D13*
X-589750D1*
X158750Y1524000D2*
X-589750D1*
X-539750Y2460625D2*
Y3297250D1*
G36*
Y3397250D2*
X-519750Y3297250D1*
X-559750D1*
X-539750Y3397250D1*
G37*
Y2460625D2*
D13*
Y1624000D1*
G36*
Y1524000D2*
X-559750Y1624000D1*
X-519750D1*
X-539750Y1524000D1*
G37*
X778552Y3860061D2*
D47*
X788323Y3865003D1*
X802923Y3879491D1*
Y3777515D1*
X892583Y3879491D2*
X844066D1*
X839237Y3835803D1*
X844066Y3840632D1*
X858666Y3845574D1*
X873154D1*
X887754Y3840632D1*
X897524Y3830974D1*
X902354Y3816374D1*
Y3806715D1*
X897524Y3792115D1*
X887754Y3782345D1*
X873154Y3777515D1*
X858666D1*
X844066Y3782345D1*
X839237Y3787286D1*
X834295Y3796945D1*
X938555Y3787286D2*
X933726Y3782345D1*
X938555Y3777515D1*
X943497Y3782345D1*
X938555Y3787286D1*
X999128Y3879491D2*
X984640Y3874661D1*
X979699Y3865003D1*
Y3855232D1*
X984640Y3845574D1*
X994299Y3840632D1*
X1013728Y3835803D1*
X1028328Y3830974D1*
X1037986Y3821203D1*
X1042816Y3811545D1*
Y3796945D1*
X1037986Y3787286D1*
X1033157Y3782345D1*
X1018557Y3777515D1*
X999128D1*
X984640Y3782345D1*
X979699Y3787286D1*
X974870Y3796945D1*
Y3811545D1*
X979699Y3821203D1*
X989470Y3830974D1*
X1003957Y3835803D1*
X1023386Y3840632D1*
X1033157Y3845574D1*
X1037986Y3855232D1*
Y3865003D1*
X1033157Y3874661D1*
X1018557Y3879491D1*
X999128D1*
X1098447D2*
X1083959Y3874661D1*
X1079017Y3865003D1*
Y3855232D1*
X1083959Y3845574D1*
X1093617Y3840632D1*
X1113047Y3835803D1*
X1127647Y3830974D1*
X1137305Y3821203D1*
X1142134Y3811545D1*
Y3796945D1*
X1137305Y3787286D1*
X1132476Y3782345D1*
X1117876Y3777515D1*
X1098447D1*
X1083959Y3782345D1*
X1079017Y3787286D1*
X1074188Y3796945D1*
Y3811545D1*
X1079017Y3821203D1*
X1088788Y3830974D1*
X1103276Y3835803D1*
X1122705Y3840632D1*
X1132476Y3845574D1*
X1137305Y3855232D1*
Y3865003D1*
X1132476Y3874661D1*
X1117876Y3879491D1*
X1098447D1*
X-653311Y2286621D2*
X-658253Y2296392D1*
X-672741Y2310992D1*
X-570765D1*
X-672741Y2366623D2*
X-667911Y2352135D1*
X-658253Y2347193D1*
X-648482D1*
X-638824Y2352135D1*
X-633882Y2361793D1*
X-629053Y2381223D1*
X-624224Y2395823D1*
X-614453Y2405481D1*
X-604795Y2410310D1*
X-590195D1*
X-580536Y2405481D1*
X-575595Y2400652D1*
X-570765Y2386052D1*
Y2366623D1*
X-575595Y2352135D1*
X-580536Y2347193D1*
X-590195Y2342364D1*
X-604795D1*
X-614453Y2347193D1*
X-624224Y2356964D1*
X-629053Y2371452D1*
X-633882Y2390881D1*
X-638824Y2400652D1*
X-648482Y2405481D1*
X-658253D1*
X-667911Y2400652D1*
X-672741Y2386052D1*
Y2366623D1*
X-580536Y2446512D2*
X-575595Y2441683D1*
X-570765Y2446512D1*
X-575595Y2451454D1*
X-580536Y2446512D1*
X-570765Y2502255D2*
X-672741Y2550885D1*
Y2482826D1*
Y2592028D2*
Y2645374D1*
X-633882Y2616286D1*
Y2630886D1*
X-629053Y2640545D1*
X-624224Y2645374D1*
X-609624Y2650316D1*
X-599965D1*
X-585365Y2645374D1*
X-575595Y2635716D1*
X-570765Y2621116D1*
Y2606516D1*
X-575595Y2592028D1*
X-580536Y2587199D1*
X-590195Y2582257D1*
M02*
