G04 DipTrace 3.2.0.1*
G04 Top.gbr*
%MOMM*%
G04 #@! TF.FileFunction,Copper,L1,Top*
G04 #@! TF.Part,Single*
G04 #@! TA.AperFunction,Conductor*
%ADD14C,0.5*%
%ADD15C,0.33*%
G04 #@! TA.AperFunction,ComponentPad*
%ADD16R,1.25X1.25*%
%ADD17C,1.25*%
%ADD18R,1.3X1.5*%
%ADD19R,1.5X1.3*%
G04 #@! TA.AperFunction,ComponentPad*
%ADD20C,1.5*%
%ADD21R,1.5X1.5*%
%ADD23R,1.9X1.9*%
%ADD24C,1.9*%
%ADD26R,1.0X0.9*%
G04 #@! TA.AperFunction,ViaPad*
%ADD27C,1.016*%
%FSLAX35Y35*%
G04*
G71*
G90*
G75*
G01*
G04 Top*
%LPD*%
X-1302875Y2208701D2*
D14*
Y2507125D1*
X-762000Y3048000D1*
X-1302875Y2208701D2*
D15*
X-571500D1*
Y2212288D1*
X965069Y988163D2*
X865036Y888131D1*
X120918D1*
X20037Y989012D1*
Y1105503D1*
X14601D1*
Y1455084D1*
X0D1*
X-186813Y2158799D2*
X-240302Y2212288D1*
X-571500D1*
X-775936Y846314D2*
X-599052D1*
X-339863Y1105503D1*
X14601D1*
X1079500Y2222500D2*
D14*
Y2476500D1*
X508000Y3048000D1*
X381291Y2921291D1*
Y2357706D1*
X235873Y2212288D1*
X190500D1*
X-571500Y1450288D2*
D15*
X-530414D1*
X-507590Y1473112D1*
X-322605D1*
X-333797Y1484305D1*
Y1475058D1*
X-18752Y2243944D2*
X164583D1*
X196238Y2212288D1*
X190500D1*
X-775936Y1046314D2*
X-539028D1*
X-333797Y1251545D1*
Y1475058D1*
X-1074155Y1730987D2*
Y1712763D1*
X-571500D1*
Y1704288D1*
X-1223115Y630700D2*
X861605D1*
X965069Y734163D1*
X-1383115Y1040700D2*
Y1586747D1*
X-1238875Y1730987D1*
X-1264155D1*
X1084214Y1538864D2*
Y2027786D1*
X1079500Y2032500D1*
X452224D1*
X378013Y1958288D1*
X190500D1*
X-1302875Y2018701D2*
X-733112D1*
X-672700Y1958288D1*
X-571500D1*
X894214Y1538864D2*
X708975D1*
X543551Y1704288D1*
X190500D1*
X-571500Y1958288D2*
X-116788D1*
X137212Y1704288D1*
X190500D1*
X204601Y1105503D2*
X199705Y1100607D1*
Y1458604D1*
X177942Y1480367D1*
Y1444095D1*
X190500D1*
Y1450288D1*
D27*
X0Y1455084D3*
X-186813Y2158799D3*
X-333797Y1475058D3*
X-18752Y2243944D3*
D16*
X-775936Y1046314D3*
D17*
Y846314D3*
D18*
X14601Y1105503D3*
X204601D3*
D19*
X-1302875Y2208701D3*
Y2018701D3*
D20*
X965069Y734163D3*
D21*
Y988163D3*
D23*
X508000Y3048000D3*
D24*
X-762000D3*
D19*
X1079500Y2222500D3*
Y2032500D3*
D18*
X-1074155Y1730987D3*
X-1264155D3*
X894214Y1538864D3*
X1084214D3*
D26*
X-1383115Y1040700D3*
Y630700D3*
X-1223115D3*
Y1040700D3*
D21*
X-571500Y2212288D3*
D20*
Y1958288D3*
Y1704288D3*
Y1450288D3*
X190500D3*
Y1704288D3*
Y1958288D3*
Y2212288D3*
M02*
