G04 DipTrace 3.2.0.1*
G04 TopSilk.gbr*
%MOMM*%
G04 #@! TF.FileFunction,Legend,Top*
G04 #@! TF.Part,Single*
%ADD10C,0.25*%
%ADD25O,0.29988X0.3*%
%ADD53C,0.19608*%
%FSLAX35Y35*%
G04*
G71*
G90*
G75*
G01*
G04 TopSilk*
%LPD*%
X-775936Y696314D2*
D10*
G02X-775936Y696314I0J249990D01*
G01*
X-805934Y1266314D2*
X-745937D1*
X-775936Y1296314D2*
Y1236314D1*
X-90452Y1040553D2*
Y1170453D1*
X-1367825Y2313754D2*
X-1237925D1*
X819707Y1111163D2*
X1110430D1*
G02X819707Y1111163I-145362J-250435D01*
G01*
X-1383111Y835700D2*
X-1382916Y841280D1*
X-1382333Y846833D1*
X-1381363Y852332D1*
X-1380012Y857751D1*
X-1378287Y863061D1*
X-1376195Y868238D1*
X-1373748Y873257D1*
X-1370956Y878093D1*
X-1367834Y882722D1*
X-1364396Y887123D1*
X-1360660Y891272D1*
X-1356644Y895151D1*
X-1352366Y898740D1*
X-1347849Y902023D1*
X-1343114Y904982D1*
X-1338184Y907603D1*
X-1333083Y909874D1*
X-1327837Y911784D1*
X-1322469Y913323D1*
X-1317008Y914484D1*
X-1311479Y915261D1*
X-1305909Y915651D1*
X-1300325D1*
X-1294755Y915261D1*
X-1289226Y914484D1*
X-1283765Y913323D1*
X-1278397Y911784D1*
X-1273151Y909874D1*
X-1268050Y907603D1*
X-1263120Y904982D1*
X-1258385Y902023D1*
X-1253868Y898740D1*
X-1249590Y895151D1*
X-1245574Y891272D1*
X-1241838Y887123D1*
X-1238400Y882722D1*
X-1235278Y878093D1*
X-1232486Y873257D1*
X-1230039Y868238D1*
X-1227947Y863061D1*
X-1226222Y857751D1*
X-1224871Y852332D1*
X-1223901Y846833D1*
X-1223318Y841280D1*
X-1223123Y835700D1*
X-1223318Y830119D1*
X-1223901Y824566D1*
X-1224871Y819067D1*
X-1226222Y813649D1*
X-1227947Y808338D1*
X-1230039Y803161D1*
X-1232486Y798142D1*
X-1235278Y793306D1*
X-1238400Y788677D1*
X-1241838Y784277D1*
X-1245574Y780127D1*
X-1249590Y776248D1*
X-1253868Y772659D1*
X-1258385Y769377D1*
X-1263120Y766417D1*
X-1268050Y763796D1*
X-1273151Y761525D1*
X-1278397Y759615D1*
X-1283765Y758076D1*
X-1289226Y756915D1*
X-1294755Y756138D1*
X-1300325Y755748D1*
X-1305909D1*
X-1311479Y756138D1*
X-1317008Y756915D1*
X-1322469Y758076D1*
X-1327837Y759615D1*
X-1333083Y761525D1*
X-1338184Y763796D1*
X-1343114Y766417D1*
X-1347849Y769377D1*
X-1352366Y772659D1*
X-1356644Y776248D1*
X-1360660Y780127D1*
X-1364396Y784277D1*
X-1367834Y788677D1*
X-1370956Y793306D1*
X-1373748Y798142D1*
X-1376195Y803161D1*
X-1378287Y808338D1*
X-1380012Y813649D1*
X-1381363Y819067D1*
X-1382333Y824566D1*
X-1382916Y830119D1*
X-1383111Y835700D1*
X-1163115Y685700D2*
Y985700D1*
X-1443119Y685700D2*
Y735700D1*
Y985700D1*
X-1318127Y625700D2*
X-1288107D1*
X-1318127Y1045700D2*
X-1288107D1*
D25*
X-1463121Y1050700D3*
X69511Y2331288D2*
D10*
Y1331288D1*
X-450511D2*
X69511D1*
X-450511Y2331288D2*
Y1331288D1*
Y2331288D2*
X-250510D1*
X69511D2*
X-130490D1*
X-250510D2*
G03X-130490Y2331288I60010J10D01*
G01*
X-410608Y805823D2*
D53*
X-422681Y799787D1*
X-434895Y787573D1*
X-440931Y775500D1*
Y751214D1*
X-434895Y739000D1*
X-422681Y726927D1*
X-410608Y720750D1*
X-392358Y714714D1*
X-361895D1*
X-343785Y720750D1*
X-331572Y726927D1*
X-319499Y739000D1*
X-313322Y751214D1*
Y775500D1*
X-319499Y787573D1*
X-331572Y799787D1*
X-343785Y805823D1*
X-416504Y845039D2*
X-422681Y857252D1*
X-440791Y875502D1*
X-313322D1*
X390485Y1145666D2*
X384448Y1157740D1*
X372235Y1169953D1*
X360162Y1175990D1*
X335875D1*
X323662Y1169953D1*
X311589Y1157740D1*
X305412Y1145666D1*
X299375Y1127416D1*
Y1096953D1*
X305412Y1078843D1*
X311589Y1066630D1*
X323662Y1054557D1*
X335875Y1048380D1*
X360162D1*
X372235Y1054557D1*
X384448Y1066630D1*
X390485Y1078843D1*
X435877Y1145526D2*
Y1151563D1*
X441914Y1163776D1*
X447951Y1169813D1*
X460164Y1175849D1*
X484451D1*
X496524Y1169813D1*
X502560Y1163776D1*
X508737Y1151563D1*
Y1139490D1*
X502560Y1127276D1*
X490487Y1109166D1*
X429701Y1048380D1*
X514774D1*
X-1533538Y2098242D2*
X-1545611Y2092206D1*
X-1557825Y2079992D1*
X-1563861Y2067919D1*
Y2043633D1*
X-1557825Y2031419D1*
X-1545611Y2019346D1*
X-1533538Y2013169D1*
X-1515288Y2007133D1*
X-1484825D1*
X-1466715Y2013169D1*
X-1454502Y2019346D1*
X-1442428Y2031419D1*
X-1436251Y2043633D1*
Y2067919D1*
X-1442428Y2079992D1*
X-1454501Y2092206D1*
X-1466715Y2098242D1*
X-1563721Y2149671D2*
Y2216354D1*
X-1515148Y2179994D1*
Y2198244D1*
X-1509111Y2210317D1*
X-1503075Y2216354D1*
X-1484825Y2222531D1*
X-1472752D1*
X-1454502Y2216354D1*
X-1442288Y2204281D1*
X-1436252Y2186031D1*
Y2167781D1*
X-1442288Y2149671D1*
X-1448465Y2143635D1*
X-1460538Y2137458D1*
X887693Y1297150D2*
Y1169540D1*
X930229D1*
X948479Y1175717D1*
X960693Y1187790D1*
X966729Y1200004D1*
X972766Y1218113D1*
Y1248577D1*
X966729Y1266827D1*
X960693Y1278900D1*
X948479Y1291113D1*
X930229Y1297150D1*
X887693D1*
X1011981Y1272723D2*
X1024195Y1278900D1*
X1042445Y1297009D1*
Y1169540D1*
X879300Y2113624D2*
Y2168234D1*
X873123Y2186484D1*
X867087Y2192661D1*
X855014Y2198697D1*
X842800D1*
X830727Y2192661D1*
X824550Y2186484D1*
X818513Y2168234D1*
Y2113624D1*
X946123D1*
X879300Y2156161D2*
X946123Y2198697D1*
X842940Y2237913D2*
X836764Y2250126D1*
X818654Y2268376D1*
X946123D1*
X-1254884Y1545626D2*
X-1200274D1*
X-1182024Y1551803D1*
X-1175847Y1557840D1*
X-1169810Y1569913D1*
Y1582126D1*
X-1175847Y1594199D1*
X-1182024Y1600376D1*
X-1200274Y1606413D1*
X-1254884D1*
Y1478803D1*
X-1212347Y1545626D2*
X-1169810Y1478803D1*
X-1124418Y1575949D2*
Y1581986D1*
X-1118381Y1594199D1*
X-1112345Y1600236D1*
X-1100131Y1606272D1*
X-1075845D1*
X-1063772Y1600236D1*
X-1057735Y1594199D1*
X-1051558Y1581986D1*
Y1569913D1*
X-1057735Y1557699D1*
X-1069808Y1539590D1*
X-1130595Y1478803D1*
X-1045522D1*
X757533Y1739064D2*
X812143D1*
X830393Y1745241D1*
X836570Y1751278D1*
X842606Y1763351D1*
Y1775564D1*
X836570Y1787638D1*
X830393Y1793814D1*
X812143Y1799851D1*
X757533D1*
Y1672241D1*
X800070Y1739064D2*
X842606Y1672241D1*
X894035Y1799711D2*
X960718D1*
X924358Y1751138D1*
X942608D1*
X954681Y1745101D1*
X960718Y1739064D1*
X966895Y1720814D1*
Y1708741D1*
X960718Y1690491D1*
X948645Y1678278D1*
X930395Y1672241D1*
X912145D1*
X894035Y1678278D1*
X887999Y1684455D1*
X881822Y1696528D1*
X-1209923Y1237552D2*
X-1221996Y1249766D1*
X-1240246Y1255802D1*
X-1264533D1*
X-1282783Y1249766D1*
X-1294996Y1237552D1*
Y1225479D1*
X-1288819Y1213266D1*
X-1282783Y1207229D1*
X-1270709Y1201193D1*
X-1234209Y1188979D1*
X-1221996Y1182943D1*
X-1215959Y1176766D1*
X-1209923Y1164693D1*
Y1146443D1*
X-1221996Y1134370D1*
X-1240246Y1128193D1*
X-1264533D1*
X-1282783Y1134370D1*
X-1294996Y1146443D1*
X-1170707Y1231375D2*
X-1158494Y1237552D1*
X-1140244Y1255662D1*
Y1128193D1*
X-458376Y2517275D2*
Y2426165D1*
X-452340Y2407915D1*
X-440126Y2395842D1*
X-421876Y2389665D1*
X-409803D1*
X-391553Y2395842D1*
X-379340Y2407915D1*
X-373303Y2426165D1*
Y2517275D1*
X-334087Y2492848D2*
X-321874Y2499025D1*
X-303624Y2517135D1*
Y2389665D1*
M02*
